<?xml version="1.0" encoding="utf-8"?><!DOCTYPE svg PUBLIC "-//W3C//DTD SVG 1.1//EN" "http://www.w3.org/Graphics/SVG/1.1/DTD/svg11.dtd"><svg version="1.1" xmlns="http://www.w3.org/2000/svg" xmlns:xlink="http://www.w3.org/1999/xlink" width="20" height="20" viewBox="0 0 20 20" data-tags="language"><g fill="#444" transform="scale(0.01953125 0.01953125)"><path d="M1011.354 558.541c-31.949-87.398-121.139-139.571-238.643-139.571-4.608 0-9.011 0.102-13.414 0.307l-0.819-105.626c0 0 174.592-30.106 180.48-31.078s6.81-6.093 5.581-11.827c-1.178-5.683-8.55-45.21-9.626-49.971-1.382-6.707-5.222-6.502-10.598-5.581-5.325 0.922-166.4 23.603-166.4 23.603s-0.614-99.994-0.666-106.394c-0.051-6.4-3.533-8.090-9.933-7.987s-47.104 0.717-52.48 0.819c-5.376 0.102-8.397 2.509-8.294 7.578 0.102 5.12 1.69 118.118 1.69 118.118s-156.723 26.982-160.973 27.802c-4.301 0.717-8.704 2.714-7.731 7.322s9.728 56.013 10.65 60.006c0.922 4.096 3.686 6.605 9.626 5.478 5.888-0.973 149.709-25.805 149.709-25.805l1.792 103.322c-55.142 14.387-92.211 42.189-115.507 66.714-39.322 41.318-61.798 96.614-61.798 151.706 0 81.203 49.715 129.485 119.194 137.984 161.894 19.814 262.093-156.672 295.373-241.408 56.166 77.107 13.107 222.925-107.213 306.176-2.202 1.485-5.018 6.605-1.69 10.598s27.699 33.894 31.693 38.707c4.096 4.915 10.547 3.021 13.107 1.178 128.512-88.576 187.443-231.168 146.893-342.17zM633.19 721.766c-49.459-6.195-48.333-46.797-48.333-74.394 0-39.578 16.742-80.896 44.851-110.387 17.152-18.125 38.4-31.795 62.925-40.909l4.198 218.982c-19.712 6.707-40.909 9.472-63.642 6.707zM757.453 693.453l2.355-210.381c4.301-0.205 8.499-0.512 12.902-0.512 39.578 0 76.493 7.424 96.512 18.483 20.019 11.11-52.378 138.906-111.77 192.41zM299.213 300.851c-1.536-4.813-5.274-7.424-10.035-7.424h-99.84c-4.762 0-8.448 2.611-9.933 7.373-21.094 66.509-178.176 562.688-178.995 565.299-0.87 2.611-0.563 3.891 3.174 3.891h88.73c3.84 0 5.069-1.178 5.837-3.686 0.768-2.611 51.61-169.882 51.61-169.882h178.995c0 0 50.79 167.322 51.61 169.882 0.819 2.509 1.997 3.686 5.786 3.686h88.781c3.686 0 3.994-1.28 3.174-3.891-0.717-2.56-157.85-498.739-178.893-565.248zM165.171 624.333l74.086-268.8 74.086 268.8h-148.173z" /></g></svg>